{"asset":{"version":"2.0","generator":"Blockbench 4.11.2 glTF exporter"},"scenes":[{"nodes":[15],"name":"blockbench_export"}],"scene":0,"nodes":[{"rotation":[0,0,0.7071067811865475,0.7071067811865476],"translation":[0.140625,0.078125,-0.1875],"name":"cylinder","mesh":0},{"translation":[0,0.125,0.0625],"name":"cube","mesh":1},{"rotation":[0,0,0.7071067811865475,0.7071067811865476],"translation":[-0.140625,0.078125,-0.1875],"name":"cylinder","mesh":2},{"rotation":[-0.16806930625621266,-0.1680693062562125,0.6868425644167334,0.6868425644167346],"translation":[0.140625,0.07812499999999999,0.390625],"name":"cylinder","mesh":3},{"rotation":[-0.18301270189221946,-0.18301270189221922,0.6830127018922189,0.6830127018922199],"translation":[-0.140625,0.078125,0.390625],"name":"cylinder","mesh":4},{"rotation":[0.02179412209779098,-0.0009515519206527937,0.0436090071323521,0.9988104751592563],"translation":[-0.07031249999999999,0.1660818001155413,0.3670610919288405],"name":"cube","mesh":5},{"translation":[0.03125,0.125,0.0625],"name":"cube","mesh":6},{"rotation":[0.13052619222005157,0,0,0.9914448613738104],"translation":[0,0.1171875,0.4921875],"name":"cube","mesh":7},{"rotation":[-0.10886687485196457,0,0,0.9940563382223196],"translation":[0,0.109375,-0.2734375],"name":"cube","mesh":8},{"rotation":[0.5555702330196022,0,0,0.8314696123025452],"translation":[0,0.265625,0.234375],"name":"cube","mesh":9},{"translation":[0,0.1875,-0.3125],"name":"cube","mesh":10},{"rotation":[0.8314696123025452,0,0,0.5555702330196023],"translation":[0,0.265625,-0.09375],"name":"cube","mesh":11},{"translation":[0.03125,0.359375,0.0625],"name":"cube","mesh":12},{"translation":[0.03125,0.125,0.359375],"name":"cube","mesh":13},{"rotation":[0.02179412209779098,0.0009515519206527931,-0.0436090071323521,0.9988104751592563],"translation":[0.0703125,0.1660818001155413,0.3670610919288405],"name":"cube","mesh":14},{"children":[0,1,2,3,4,5,6,7,8,9,10,11,12,13,14]}],"bufferViews":[{"buffer":0,"byteOffset":0,"byteLength":1440,"target":34962,"byteStride":12},{"buffer":0,"byteOffset":1440,"byteLength":1440,"target":34962,"byteStride":12},{"buffer":0,"byteOffset":2880,"byteLength":960,"target":34962,"byteStride":8},{"buffer":0,"byteOffset":3840,"byteLength":288,"target":34963},{"buffer":0,"byteOffset":4128,"byteLength":288,"target":34962,"byteStride":12},{"buffer":0,"byteOffset":4416,"byteLength":288,"target":34962,"byteStride":12},{"buffer":0,"byteOffset":4704,"byteLength":192,"target":34962,"byteStride":8},{"buffer":0,"byteOffset":4896,"byteLength":72,"target":34963},{"buffer":0,"byteOffset":4968,"byteLength":1440,"target":34962,"byteStride":12},{"buffer":0,"byteOffset":6408,"byteLength":1440,"target":34962,"byteStride":12},{"buffer":0,"byteOffset":7848,"byteLength":960,"target":34962,"byteStride":8},{"buffer":0,"byteOffset":8808,"byteLength":288,"target":34963},{"buffer":0,"byteOffset":9096,"byteLength":1440,"target":34962,"byteStride":12},{"buffer":0,"byteOffset":10536,"byteLength":1440,"target":34962,"byteStride":12},{"buffer":0,"byteOffset":11976,"byteLength":960,"target":34962,"byteStride":8},{"buffer":0,"byteOffset":12936,"byteLength":288,"target":34963},{"buffer":0,"byteOffset":13224,"byteLength":1440,"target":34962,"byteStride":12},{"buffer":0,"byteOffset":14664,"byteLength":1440,"target":34962,"byteStride":12},{"buffer":0,"byteOffset":16104,"byteLength":960,"target":34962,"byteStride":8},{"buffer":0,"byteOffset":17064,"byteLength":288,"target":34963},{"buffer":0,"byteOffset":17352,"byteLength":288,"target":34962,"byteStride":12},{"buffer":0,"byteOffset":17640,"byteLength":288,"target":34962,"byteStride":12},{"buffer":0,"byteOffset":17928,"byteLength":192,"target":34962,"byteStride":8},{"buffer":0,"byteOffset":18120,"byteLength":72,"target":34963},{"buffer":0,"byteOffset":18192,"byteLength":288,"target":34962,"byteStride":12},{"buffer":0,"byteOffset":18480,"byteLength":288,"target":34962,"byteStride":12},{"buffer":0,"byteOffset":18768,"byteLength":192,"target":34962,"byteStride":8},{"buffer":0,"byteOffset":18960,"byteLength":72,"target":34963},{"buffer":0,"byteOffset":19032,"byteLength":288,"target":34962,"byteStride":12},{"buffer":0,"byteOffset":19320,"byteLength":288,"target":34962,"byteStride":12},{"buffer":0,"byteOffset":19608,"byteLength":192,"target":34962,"byteStride":8},{"buffer":0,"byteOffset":19800,"byteLength":72,"target":34963},{"buffer":0,"byteOffset":19872,"byteLength":288,"target":34962,"byteStride":12},{"buffer":0,"byteOffset":20160,"byteLength":288,"target":34962,"byteStride":12},{"buffer":0,"byteOffset":20448,"byteLength":192,"target":34962,"byteStride":8},{"buffer":0,"byteOffset":20640,"byteLength":72,"target":34963},{"buffer":0,"byteOffset":20712,"byteLength":288,"target":34962,"byteStride":12},{"buffer":0,"byteOffset":21000,"byteLength":288,"target":34962,"byteStride":12},{"buffer":0,"byteOffset":21288,"byteLength":192,"target":34962,"byteStride":8},{"buffer":0,"byteOffset":21480,"byteLength":72,"target":34963},{"buffer":0,"byteOffset":21552,"byteLength":288,"target":34962,"byteStride":12},{"buffer":0,"byteOffset":21840,"byteLength":288,"target":34962,"byteStride":12},{"buffer":0,"byteOffset":22128,"byteLength":192,"target":34962,"byteStride":8},{"buffer":0,"byteOffset":22320,"byteLength":72,"target":34963},{"buffer":0,"byteOffset":22392,"byteLength":288,"target":34962,"byteStride":12},{"buffer":0,"byteOffset":22680,"byteLength":288,"target":34962,"byteStride":12},{"buffer":0,"byteOffset":22968,"byteLength":192,"target":34962,"byteStride":8},{"buffer":0,"byteOffset":23160,"byteLength":72,"target":34963},{"buffer":0,"byteOffset":23232,"byteLength":288,"target":34962,"byteStride":12},{"buffer":0,"byteOffset":23520,"byteLength":288,"target":34962,"byteStride":12},{"buffer":0,"byteOffset":23808,"byteLength":192,"target":34962,"byteStride":8},{"buffer":0,"byteOffset":24000,"byteLength":72,"target":34963},{"buffer":0,"byteOffset":24072,"byteLength":288,"target":34962,"byteStride":12},{"buffer":0,"byteOffset":24360,"byteLength":288,"target":34962,"byteStride":12},{"buffer":0,"byteOffset":24648,"byteLength":192,"target":34962,"byteStride":8},{"buffer":0,"byteOffset":24840,"byteLength":72,"target":34963},{"buffer":0,"byteOffset":24912,"byteLength":288,"target":34962,"byteStride":12},{"buffer":0,"byteOffset":25200,"byteLength":288,"target":34962,"byteStride":12},{"buffer":0,"byteOffset":25488,"byteLength":192,"target":34962,"byteStride":8},{"buffer":0,"byteOffset":25680,"byteLength":72,"target":34963}],"buffers":[{"byteLength":25752,"uri":"data:application/octet-stream;base64,"}],"accessors":[{"bufferView":0,"componentType":5126,"count":120,"max":[0.0625,0.03125,0.0625],"min":[-0.0625,-0.03125,-0.0625],"type":"VEC3"},{"bufferView":1,"componentType":5126,"count":120,"max":[1,1,1],"min":[-1,-1,-1],"type":"VEC3"},{"bufferView":2,"componentType":5126,"count":120,"max":[0.46875,0.5625],"min":[0.3595125079154968,0.46875],"type":"VEC2"},{"bufferView":3,"componentType":5123,"count":144,"max":[119],"min":[0],"type":"SCALAR"},{"bufferView":4,"componentType":5126,"count":24,"max":[0.109375,0.015625,0.421875],"min":[-0.109375,-0.046875,-0.328125],"type":"VEC3"},{"bufferView":5,"componentType":5126,"count":24,"max":[1,1,1],"min":[-1,-1,-1],"type":"VEC3"},{"bufferView":6,"componentType":5126,"count":24,"max":[0.5390625,0.515625],"min":[0,0],"type":"VEC2"},{"bufferView":7,"componentType":5123,"count":36,"max":[23],"min":[0],"type":"SCALAR"},{"bufferView":8,"componentType":5126,"count":120,"max":[0.0625,0.03125,0.0625],"min":[-0.0625,-0.03125,-0.0625],"type":"VEC3"},{"bufferView":9,"componentType":5126,"count":120,"max":[1,1,1],"min":[-1,-1,-1],"type":"VEC3"},{"bufferView":10,"componentType":5126,"count":120,"max":[0.46875,0.5625],"min":[0.3595125079154968,0.46875],"type":"VEC2"},{"bufferView":11,"componentType":5123,"count":144,"max":[119],"min":[0],"type":"SCALAR"},{"bufferView":12,"componentType":5126,"count":120,"max":[0.0625,0.03125,0.0625],"min":[-0.0625,-0.03125,-0.0625],"type":"VEC3"},{"bufferView":13,"componentType":5126,"count":120,"max":[1,1,1],"min":[-1,-1,-1],"type":"VEC3"},{"bufferView":14,"componentType":5126,"count":120,"max":[0.46875,0.5625],"min":[0.3595125079154968,0.46875],"type":"VEC2"},{"bufferView":15,"componentType":5123,"count":144,"max":[119],"min":[0],"type":"SCALAR"},{"bufferView":16,"componentType":5126,"count":120,"max":[0.0625,0.03125,0.0625],"min":[-0.0625,-0.03125,-0.0625],"type":"VEC3"},{"bufferView":17,"componentType":5126,"count":120,"max":[1,1,1],"min":[-1,-1,-1],"type":"VEC3"},{"bufferView":18,"componentType":5126,"count":120,"max":[0.46875,0.5625],"min":[0.3595125079154968,0.46875],"type":"VEC2"},{"bufferView":19,"componentType":5123,"count":144,"max":[119],"min":[0],"type":"SCALAR"},{"bufferView":20,"componentType":5126,"count":24,"max":[0.0859375,0.03125,0.1328125],"min":[-0.0703125,-0.03125,-0.1328125],"type":"VEC3"},{"bufferView":21,"componentType":5126,"count":24,"max":[1,1,1],"min":[-1,-1,-1],"type":"VEC3"},{"bufferView":22,"componentType":5126,"count":24,"max":[0.5234375,0.53125],"min":[0.0625,0.359375],"type":"VEC2"},{"bufferView":23,"componentType":5123,"count":36,"max":[23],"min":[0],"type":"SCALAR"},{"bufferView":24,"componentType":5126,"count":24,"max":[0.109375,0.1875,0.171875],"min":[-0.171875,-0.046875,-0.171875],"type":"VEC3"},{"bufferView":25,"componentType":5126,"count":24,"max":[1,1,1],"min":[-1,-1,-1],"type":"VEC3"},{"bufferView":26,"componentType":5126,"count":24,"max":[0.703125,0.15234375],"min":[0.25,0],"type":"VEC2"},{"bufferView":27,"componentType":5123,"count":36,"max":[23],"min":[0],"type":"SCALAR"},{"bufferView":28,"componentType":5126,"count":24,"max":[0.140625,0.0234375,0.0234375],"min":[-0.140625,-0.0234375,-0.0234375],"type":"VEC3"},{"bufferView":29,"componentType":5126,"count":24,"max":[1,1,1],"min":[-1,-1,-1],"type":"VEC3"},{"bufferView":30,"componentType":5126,"count":24,"max":[0.5703125,0.51171875],"min":[0.125,0.15625],"type":"VEC2"},{"bufferView":31,"componentType":5123,"count":36,"max":[23],"min":[0],"type":"SCALAR"},{"bufferView":32,"componentType":5126,"count":24,"max":[0.140625,0.03125,0.0078125],"min":[-0.140625,-0.03125,-0.0078125],"type":"VEC3"},{"bufferView":33,"componentType":5126,"count":24,"max":[1,1,1],"min":[-1,-1,-1],"type":"VEC3"},{"bufferView":34,"componentType":5126,"count":24,"max":[0.6328125,0.44140625],"min":[0.15625,0.03125],"type":"VEC2"},{"bufferView":35,"componentType":5123,"count":36,"max":[23],"min":[0],"type":"SCALAR"},{"bufferView":36,"componentType":5126,"count":24,"max":[0.140625,0.03125,0.109375],"min":[-0.140625,-0.03125,-0.078125],"type":"VEC3"},{"bufferView":37,"componentType":5126,"count":24,"max":[1,1,1],"min":[-1,-1,-1],"type":"VEC3"},{"bufferView":38,"componentType":5126,"count":24,"max":[0.546875,0.453125],"min":[0.0625,0.0625],"type":"VEC2"},{"bufferView":39,"componentType":5123,"count":36,"max":[23],"min":[0],"type":"SCALAR"},{"bufferView":40,"componentType":5126,"count":24,"max":[0.140625,0.015625,0.40625],"min":[-0.140625,-0.046875,0.03125],"type":"VEC3"},{"bufferView":41,"componentType":5126,"count":24,"max":[1,1,1],"min":[-1,-1,-1],"type":"VEC3"},{"bufferView":42,"componentType":5126,"count":24,"max":[0.5234375,0.453125],"min":[0.15625,0],"type":"VEC2"},{"bufferView":43,"componentType":5123,"count":36,"max":[23],"min":[0],"type":"SCALAR"},{"bufferView":44,"componentType":5126,"count":24,"max":[0.140625,0.03125,0.078125],"min":[-0.140625,-0.03125,-0.078125],"type":"VEC3"},{"bufferView":45,"componentType":5126,"count":24,"max":[1,1,1],"min":[-1,-1,-1],"type":"VEC3"},{"bufferView":46,"componentType":5126,"count":24,"max":[0.5234375,0.546875],"min":[0,0.03125],"type":"VEC2"},{"bufferView":47,"componentType":5123,"count":36,"max":[23],"min":[0],"type":"SCALAR"},{"bufferView":48,"componentType":5126,"count":24,"max":[0.109375,-0.015625,0.171875],"min":[-0.171875,-0.046875,-0.140625],"type":"VEC3"},{"bufferView":49,"componentType":5126,"count":24,"max":[1,1,1],"min":[-1,-1,-1],"type":"VEC3"},{"bufferView":50,"componentType":5126,"count":24,"max":[0.609375,0.5390625],"min":[0.0625,0],"type":"VEC2"},{"bufferView":51,"componentType":5123,"count":36,"max":[23],"min":[0],"type":"SCALAR"},{"bufferView":52,"componentType":5126,"count":24,"max":[0.109375,0.046875,-0.046875],"min":[-0.171875,-0.046875,-0.125],"type":"VEC3"},{"bufferView":53,"componentType":5126,"count":24,"max":[1,1,1],"min":[-1,-1,-1],"type":"VEC3"},{"bufferView":54,"componentType":5126,"count":24,"max":[0.55078125,0.5546875],"min":[0.0625,0.1875],"type":"VEC2"},{"bufferView":55,"componentType":5123,"count":36,"max":[23],"min":[0],"type":"SCALAR"},{"bufferView":56,"componentType":5126,"count":24,"max":[0.0703125,0.03125,0.1328125],"min":[-0.0859375,-0.03125,-0.1328125],"type":"VEC3"},{"bufferView":57,"componentType":5126,"count":24,"max":[1,1,1],"min":[-1,-1,-1],"type":"VEC3"},{"bufferView":58,"componentType":5126,"count":24,"max":[0.5703125,0.546875],"min":[0,0.0625],"type":"VEC2"},{"bufferView":59,"componentType":5123,"count":36,"max":[23],"min":[0],"type":"SCALAR"}],"materials":[{"pbrMetallicRoughness":{"metallicFactor":0,"roughnessFactor":1,"baseColorTexture":{"index":0}},"alphaMode":"MASK","alphaCutoff":0.05,"doubleSided":true}],"textures":[{"sampler":0,"source":0,"name":"car_texture"}],"samplers":[{"magFilter":9728,"minFilter":9728,"wrapS":33071,"wrapT":33071}],"images":[{"mimeType":"image/png","uri":"data:image/png;base64,"}],"meshes":[{"primitives":[{"mode":4,"attributes":{"POSITION":0,"NORMAL":1,"TEXCOORD_0":2},"indices":3,"material":0}]},{"primitives":[{"mode":4,"attributes":{"POSITION":4,"NORMAL":5,"TEXCOORD_0":6},"indices":7,"material":0}]},{"primitives":[{"mode":4,"attributes":{"POSITION":8,"NORMAL":9,"TEXCOORD_0":10},"indices":11,"material":0}]},{"primitives":[{"mode":4,"attributes":{"POSITION":12,"NORMAL":13,"TEXCOORD_0":14},"indices":15,"material":0}]},{"primitives":[{"mode":4,"attributes":{"POSITION":16,"NORMAL":17,"TEXCOORD_0":18},"indices":19,"material":0}]},{"primitives":[{"mode":4,"attributes":{"POSITION":20,"NORMAL":21,"TEXCOORD_0":22},"indices":23,"material":0}]},{"primitives":[{"mode":4,"attributes":{"POSITION":24,"NORMAL":25,"TEXCOORD_0":26},"indices":27,"material":0}]},{"primitives":[{"mode":4,"attributes":{"POSITION":28,"NORMAL":29,"TEXCOORD_0":30},"indices":31,"material":0}]},{"primitives":[{"mode":4,"attributes":{"POSITION":32,"NORMAL":33,"TEXCOORD_0":34},"indices":35,"material":0}]},{"primitives":[{"mode":4,"attributes":{"POSITION":36,"NORMAL":37,"TEXCOORD_0":38},"indices":39,"material":0}]},{"primitives":[{"mode":4,"attributes":{"POSITION":40,"NORMAL":41,"TEXCOORD_0":42},"indices":43,"material":0}]},{"primitives":[{"mode":4,"attributes":{"POSITION":44,"NORMAL":45,"TEXCOORD_0":46},"indices":47,"material":0}]},{"primitives":[{"mode":4,"attributes":{"POSITION":48,"NORMAL":49,"TEXCOORD_0":50},"indices":51,"material":0}]},{"primitives":[{"mode":4,"attributes":{"POSITION":52,"NORMAL":53,"TEXCOORD_0":54},"indices":55,"material":0}]},{"primitives":[{"mode":4,"attributes":{"POSITION":56,"NORMAL":57,"TEXCOORD_0":58},"indices":59,"material":0}]}]}